<svg width="14" height="16" viewBox="0 0 14 16" fill="none" xmlns="http://www.w3.org/2000/svg">
<path d="M12.8465 8.21342C12.7198 8.04008 12.6598 7.84008 12.6598 7.62675C12.6598 7.42008 12.7265 7.22008 12.8465 7.04675L13.4198 6.26008C13.6665 5.92008 13.8065 5.52008 13.8331 5.09341C13.8531 4.67341 13.7531 4.26008 13.5465 3.89341C13.3331 3.52675 13.0265 3.23341 12.6531 3.04675C12.2798 2.85342 11.8598 2.78008 11.4398 2.82008L10.4665 2.92008C10.2531 2.94008 10.0531 2.90008 9.87314 2.79341C9.69314 2.68675 9.55314 2.53341 9.46647 2.34008L9.06647 1.44675C8.89314 1.06008 8.6198 0.740081 8.26647 0.506748C7.91314 0.273415 7.50647 0.166748 7.08647 0.166748C6.6598 0.166748 6.25314 0.286748 5.8998 0.520081C5.54647 0.746748 5.26647 1.07341 5.0998 1.46008L4.6998 2.35341C4.61314 2.54675 4.47314 2.70008 4.2998 2.80675C4.1198 2.91341 3.91314 2.95341 3.70647 2.93341L2.73314 2.83341C2.31314 2.78675 1.89314 2.86675 1.5198 3.06008C1.14647 3.25341 0.833136 3.54675 0.626469 3.90675C0.413136 4.26008 0.313136 4.67341 0.333136 5.09341C0.353136 5.51341 0.499802 5.91341 0.746469 6.25342L1.3198 7.04008C1.44647 7.20675 1.50647 7.40675 1.50647 7.62008C1.50647 7.83342 1.4398 8.03341 1.3198 8.20008L0.746469 8.99341C0.499802 9.33342 0.359802 9.74008 0.333136 10.1601C0.306469 10.5801 0.413136 10.9934 0.619802 11.3601C0.826469 11.7267 1.1398 12.0201 1.51314 12.2067C1.88647 12.4001 2.30647 12.4734 2.72647 12.4334L3.6998 12.3267C3.90647 12.3067 4.11314 12.3467 4.29314 12.4534C4.47314 12.5601 4.61314 12.7134 4.6998 12.9067L5.09314 13.8001C5.2598 14.1867 5.5398 14.5067 5.89314 14.7401C6.24647 14.9667 6.65314 15.0934 7.07314 15.0934C7.49314 15.0934 7.8998 14.9734 8.25314 14.7401C8.60647 14.5134 8.8798 14.1867 9.05314 13.8001L9.44647 12.9067C9.53314 12.7134 9.67314 12.5601 9.85314 12.4601C10.0331 12.3534 10.2398 12.3134 10.4465 12.3334L11.4198 12.4401C11.8398 12.4867 12.2598 12.4067 12.6331 12.2134C13.0065 12.0201 13.3198 11.7267 13.5265 11.3667C13.7398 11.0001 13.8331 10.5867 13.8131 10.1667C13.7931 9.74675 13.6465 9.34675 13.3998 9.00008L12.8265 8.21342H12.8465ZM11.7665 8.99341L12.3398 9.78008C12.4331 9.91341 12.4931 10.0667 12.4998 10.2267C12.5065 10.3867 12.4731 10.5467 12.3865 10.6867C12.3065 10.8267 12.1865 10.9401 12.0398 11.0134C11.8931 11.0867 11.7331 11.1201 11.5731 11.1001L10.5998 10.9934C10.1131 10.9401 9.62647 11.0467 9.1998 11.2934C8.77314 11.5401 8.44647 11.9067 8.24647 12.3534L7.85314 13.2467C7.78647 13.3934 7.6798 13.5201 7.54647 13.6067C7.27314 13.7801 6.90647 13.7801 6.63314 13.6067C6.49314 13.5201 6.38647 13.3934 6.32647 13.2467L5.93314 12.3534C5.73314 11.9001 5.3998 11.5334 4.97314 11.2867C4.54647 11.0401 4.0598 10.9334 3.57314 10.9867L2.60647 11.0867C2.44647 11.1067 2.2798 11.0734 2.1398 11.0001C1.99314 10.9267 1.87314 10.8134 1.79314 10.6734C1.71314 10.5334 1.67314 10.3734 1.6798 10.2134C1.68647 10.0534 1.74647 9.90008 1.8398 9.76675L2.41314 8.97342C2.70647 8.57341 2.8598 8.10675 2.8598 7.61341C2.8598 7.12008 2.70647 6.64675 2.41314 6.25342L1.8398 5.46008C1.74647 5.32675 1.68647 5.17341 1.6798 5.01341C1.67314 4.85342 1.70647 4.69341 1.79314 4.55341C1.87314 4.41341 1.99314 4.30008 2.1398 4.22675C2.28647 4.15341 2.44647 4.12008 2.60647 4.14008L3.5798 4.24008C4.06647 4.28675 4.55314 4.18675 4.9798 3.94008C5.40647 3.69341 5.73314 3.32675 5.93314 2.87341L6.33314 1.98008C6.3998 1.83341 6.50647 1.70675 6.6398 1.62008C6.77314 1.53341 6.93314 1.48675 7.09314 1.48675C7.2798 1.48675 7.41314 1.53341 7.54647 1.62008C7.6798 1.70675 7.78647 1.83341 7.85314 1.98675L8.25314 2.87341C8.45314 3.32675 8.7798 3.69341 9.20647 3.94008C9.63314 4.18675 10.1198 4.28675 10.6065 4.24008L11.5798 4.14008C11.7398 4.12008 11.9065 4.15341 12.0465 4.22675C12.1931 4.30008 12.3065 4.41341 12.3931 4.55341C12.4731 4.69341 12.5131 4.85342 12.5065 5.01341C12.4998 5.17341 12.4465 5.33342 12.3465 5.46008L11.7731 6.25342C11.4798 6.65342 11.3265 7.12675 11.3265 7.61341C11.3265 8.10675 11.4731 8.58008 11.7665 8.98675V8.99341Z" fill="#3B3B3B"/>
<path d="M7.08647 4.93341C5.5998 4.93341 4.39314 6.14008 4.39314 7.62675C4.39314 9.11341 5.5998 10.3201 7.08647 10.3201C8.57314 10.3201 9.7798 9.11341 9.7798 7.62675C9.7798 6.14008 8.57314 4.93341 7.08647 4.93341ZM7.08647 8.98675C6.33314 8.98675 5.72647 8.37341 5.72647 7.62675C5.72647 6.88008 6.3398 6.26675 7.08647 6.26675C7.83314 6.26675 8.44647 6.88008 8.44647 7.62675C8.44647 8.37341 7.83314 8.98675 7.08647 8.98675Z" fill="#3B3B3B"/>
</svg>
