<svg width="24" height="25" viewBox="0 0 24 25" fill="none" xmlns="http://www.w3.org/2000/svg">
<path d="M16.42 8.45012C18.86 10.8901 18.86 14.8501 16.42 17.2901C13.98 19.7301 10.02 19.7301 7.58 17.2901C5.14 14.8501 5.14 10.8901 7.58 8.45012C10.02 6.01012 13.98 6.01012 16.42 8.45012Z" fill="#FF0000"/>
<path opacity="0.4" d="M8.25003 22.8899C8.16003 22.8899 8.06004 22.8699 7.97004 22.8399C5.72004 21.9399 3.90003 20.3499 2.68003 18.2499C1.50003 16.1999 1.03003 13.8799 1.34003 11.5199C1.39003 11.1099 1.78003 10.8199 2.18003 10.8699C2.59003 10.9199 2.88002 11.2999 2.83002 11.7099C2.57002 13.7299 2.97005 15.7299 3.98005 17.4899C5.02005 19.2899 6.59002 20.6599 8.52002 21.4299C8.90002 21.5899 9.09004 22.0198 8.94004 22.4098C8.83004 22.7098 8.54003 22.8899 8.25003 22.8899Z" fill="#FF0000"/>
<path opacity="0.4" d="M5.84998 5.72986C5.62998 5.72986 5.40998 5.62988 5.25998 5.43988C4.99998 5.10988 5.05999 4.63989 5.38999 4.38989C7.29999 2.89989 9.57997 2.10986 12 2.10986C14.36 2.10986 16.61 2.86988 18.5 4.30988C18.83 4.55988 18.89 5.02986 18.64 5.35986C18.39 5.68986 17.92 5.74988 17.59 5.49988C15.97 4.25988 14.04 3.60986 12 3.60986C9.91997 3.60986 7.94997 4.28989 6.30997 5.56989C6.16997 5.67989 6.00998 5.72986 5.84998 5.72986Z" fill="#FF0000"/>
<path opacity="0.4" d="M15.75 22.8901C15.45 22.8901 15.17 22.7101 15.05 22.4201C14.9 22.0401 15.08 21.6001 15.47 21.4401C17.4 20.6601 18.97 19.3001 20.01 17.5001C21.03 15.7401 21.43 13.7401 21.16 11.7201C21.11 11.3101 21.4 10.9301 21.81 10.8801C22.21 10.8301 22.6 11.1201 22.65 11.5301C22.95 13.8801 22.49 16.2101 21.31 18.2601C20.1 20.3601 18.27 21.9401 16.02 22.8501C15.94 22.8701 15.85 22.8901 15.75 22.8901Z" fill="#FF0000"/>
</svg>
