<svg width="12" height="13" viewBox="0 0 12 13" fill="none" xmlns="http://www.w3.org/2000/svg">
<path fill-rule="evenodd" clip-rule="evenodd" d="M2.24261 0.500001C2.25061 0.500001 2.25862 0.500002 2.26667 0.500002H3.06667C3.07471 0.500002 3.08273 0.500001 3.09073 0.500001C3.35012 0.499986 3.58354 0.499972 3.77775 0.51584C3.98573 0.532833 4.20672 0.571294 4.42332 0.681658C4.73692 0.841447 4.99189 1.09641 5.15168 1.41002C5.26204 1.62662 5.3005 1.8476 5.3175 2.05558C5.33336 2.24979 5.33335 2.48322 5.33334 2.74261V10.2574C5.33335 10.5168 5.33336 10.7502 5.3175 10.9444C5.3005 11.1524 5.26204 11.3734 5.15168 11.59C4.99189 11.9036 4.73692 12.1586 4.42332 12.3183C4.20672 12.4287 3.98573 12.4672 3.77775 12.4842C3.58355 12.5 3.35013 12.5 3.09074 12.5H2.2426C1.98321 12.5 1.74979 12.5 1.55558 12.4842C1.3476 12.4672 1.12662 12.4287 0.910018 12.3183C0.596414 12.1586 0.341447 11.9036 0.181658 11.59C0.0712939 11.3734 0.0328327 11.1524 0.0158401 10.9444C-2.75386e-05 10.7502 -1.40283e-05 10.5168 9.1256e-07 10.2574L1.86623e-06 2.76667C1.86623e-06 2.75862 1.3894e-06 2.7506 9.1256e-07 2.74261C-1.40283e-05 2.48322 -2.75386e-05 2.24979 0.0158401 2.05558C0.0328327 1.8476 0.0712939 1.62662 0.181658 1.41002C0.341447 1.09641 0.596414 0.841447 0.910018 0.681658C1.12662 0.571294 1.3476 0.532833 1.55558 0.51584C1.74979 0.499972 1.98322 0.499986 2.24261 0.500001ZM1.52053 1.86755C1.51706 1.86879 1.51561 1.86953 1.51534 1.86967C1.45262 1.90162 1.40162 1.95262 1.36967 2.01534C1.36953 2.01561 1.36879 2.01706 1.36755 2.02053C1.36626 2.02414 1.36412 2.03081 1.36157 2.04167C1.35619 2.06449 1.34982 2.10206 1.34475 2.16416C1.33385 2.29747 1.33334 2.47564 1.33334 2.76667V10.2333C1.33334 10.5244 1.33385 10.7025 1.34475 10.8358C1.34982 10.8979 1.35619 10.9355 1.36157 10.9583C1.36412 10.9692 1.36626 10.9759 1.36755 10.9795C1.36879 10.9829 1.36953 10.9844 1.36967 10.9847C1.40162 11.0474 1.45262 11.0984 1.51534 11.1303C1.51561 11.1305 1.51706 11.1312 1.52053 11.1325C1.52414 11.1337 1.53081 11.1359 1.54167 11.1384C1.56449 11.1438 1.60206 11.1502 1.66416 11.1553C1.79747 11.1662 1.97564 11.1667 2.26667 11.1667H3.06667C3.3577 11.1667 3.53587 11.1662 3.66918 11.1553C3.73128 11.1502 3.76885 11.1438 3.79167 11.1384C3.80252 11.1359 3.8092 11.1337 3.81281 11.1325C3.81628 11.1312 3.81773 11.1305 3.818 11.1303C3.88072 11.0984 3.93171 11.0474 3.96367 10.9847C3.96381 10.9844 3.96455 10.9829 3.96578 10.9795C3.96707 10.9759 3.96922 10.9692 3.97177 10.9583C3.97714 10.9355 3.98352 10.8979 3.98859 10.8358C3.99948 10.7025 4 10.5244 4 10.2333V2.76667C4 2.47564 3.99948 2.29747 3.98859 2.16416C3.98352 2.10206 3.97714 2.06449 3.97177 2.04167C3.96922 2.03081 3.96707 2.02414 3.96578 2.02053C3.96455 2.01706 3.96381 2.01561 3.96367 2.01534C3.93171 1.95262 3.88072 1.90162 3.818 1.86967C3.81773 1.86953 3.81628 1.86879 3.81281 1.86755C3.8092 1.86626 3.80252 1.86412 3.79167 1.86157C3.76885 1.85619 3.73128 1.84982 3.66918 1.84475C3.53587 1.83385 3.3577 1.83334 3.06667 1.83334H2.26667C1.97564 1.83334 1.79747 1.83385 1.66416 1.84475C1.60206 1.84982 1.56449 1.85619 1.54167 1.86157C1.53081 1.86412 1.52414 1.86626 1.52053 1.86755ZM8.90928 0.500001H9.75739C10.0168 0.499986 10.2502 0.499972 10.4444 0.51584C10.6524 0.532833 10.8734 0.571294 11.09 0.681658C11.4036 0.841447 11.6586 1.09641 11.8183 1.41002C11.9287 1.62662 11.9672 1.8476 11.9842 2.05558C12 2.24979 12 2.48321 12 2.7426V10.2574C12 10.5168 12 10.7502 11.9842 10.9444C11.9672 11.1524 11.9287 11.3734 11.8183 11.59C11.6586 11.9036 11.4036 12.1586 11.09 12.3183C10.8734 12.4287 10.6524 12.4672 10.4444 12.4842C10.2502 12.5 10.0168 12.5 9.75741 12.5H8.90926C8.64988 12.5 8.41646 12.5 8.22225 12.4842C8.01427 12.4672 7.79329 12.4287 7.57668 12.3183C7.26308 12.1586 7.00811 11.9036 6.84832 11.59C6.73796 11.3734 6.6995 11.1524 6.68251 10.9444C6.66664 10.7502 6.66665 10.5168 6.66667 10.2574V2.74262C6.66665 2.48322 6.66664 2.2498 6.68251 2.05558C6.6995 1.8476 6.73796 1.62662 6.84832 1.41002C7.00811 1.09641 7.26308 0.841447 7.57668 0.681658C7.79329 0.571294 8.01427 0.532833 8.22225 0.51584C8.41646 0.499972 8.64988 0.499986 8.90928 0.500001ZM8.18719 1.86755C8.18373 1.86879 8.18227 1.86953 8.18201 1.86967C8.11928 1.90162 8.06829 1.95262 8.03633 2.01534C8.0362 2.01561 8.03546 2.01706 8.03422 2.02053C8.03293 2.02414 8.03079 2.03081 8.02823 2.04167C8.02286 2.06449 8.01649 2.10206 8.01141 2.16416C8.00052 2.29747 8 2.47564 8 2.76667V10.2333C8 10.5244 8.00052 10.7025 8.01141 10.8358C8.01649 10.8979 8.02286 10.9355 8.02823 10.9583C8.03079 10.9692 8.03293 10.9759 8.03422 10.9795C8.03546 10.9829 8.0362 10.9844 8.03633 10.9847C8.06829 11.0474 8.11928 11.0984 8.18201 11.1303C8.18227 11.1305 8.18373 11.1312 8.18719 11.1325C8.19081 11.1337 8.19748 11.1359 8.20834 11.1384C8.23115 11.1438 8.26872 11.1502 8.33083 11.1553C8.46413 11.1662 8.64231 11.1667 8.93334 11.1667H9.73334C10.0244 11.1667 10.2025 11.1662 10.3358 11.1553C10.3979 11.1502 10.4355 11.1438 10.4583 11.1384C10.4692 11.1359 10.4759 11.1337 10.4795 11.1325C10.4829 11.1312 10.4844 11.1305 10.4847 11.1303C10.5474 11.0984 10.5984 11.0474 10.6303 10.9847C10.6304 10.9845 10.6307 10.9839 10.6313 10.9826C10.6316 10.9818 10.632 10.9808 10.6325 10.9795C10.6337 10.9759 10.6359 10.9692 10.6384 10.9583C10.6438 10.9355 10.6502 10.8979 10.6553 10.8358C10.6662 10.7025 10.6667 10.5244 10.6667 10.2333V2.76667C10.6667 2.47564 10.6662 2.29747 10.6553 2.16416C10.6502 2.10206 10.6438 2.06449 10.6384 2.04167C10.6359 2.03081 10.6337 2.02414 10.6325 2.02053C10.6312 2.01706 10.6305 2.01561 10.6303 2.01534C10.5984 1.95262 10.5474 1.90162 10.4847 1.86967C10.4844 1.86953 10.4829 1.86879 10.4795 1.86755C10.4759 1.86626 10.4692 1.86412 10.4583 1.86157C10.4355 1.85619 10.3979 1.84982 10.3358 1.84475C10.2025 1.83385 10.0244 1.83334 9.73334 1.83334H8.93334C8.64231 1.83334 8.46413 1.83385 8.33083 1.84475C8.26872 1.84982 8.23115 1.85619 8.20834 1.86157C8.19748 1.86412 8.19081 1.86626 8.18719 1.86755Z" fill="#3B3B3B"/>
</svg>
