<svg width="64" height="64" viewBox="0 0 64 64" fill="none" xmlns="http://www.w3.org/2000/svg">
<path opacity="0.4" d="M28.6667 6.53352C30.5067 4.96018 33.52 4.96018 35.3867 6.53352L39.6 10.1602C40.4 10.8535 41.8933 11.4135 42.96 11.4135H47.4933C50.32 11.4135 52.64 13.7335 52.64 16.5602V21.0935C52.64 22.1335 53.2 23.6535 53.8933 24.4535L57.52 28.6669C59.0933 30.5069 59.0933 33.5202 57.52 35.3869L53.8933 39.6002C53.2 40.4002 52.64 41.8935 52.64 42.9602V47.4935C52.64 50.3202 50.32 52.6402 47.4933 52.6402H42.96C41.92 52.6402 40.4 53.2002 39.6 53.8935L35.3867 57.5202C33.5467 59.0935 30.5333 59.0935 28.6667 57.5202L24.4533 53.8935C23.6533 53.2002 22.16 52.6402 21.0933 52.6402H16.48C13.6533 52.6402 11.3333 50.3202 11.3333 47.4935V42.9335C11.3333 41.8935 10.7733 40.4002 10.1067 39.6002L6.50668 35.3602C4.96001 33.5202 4.96001 30.5335 6.50668 28.6935L10.1067 24.4535C10.7733 23.6535 11.3333 22.1602 11.3333 21.1202V16.5335C11.3333 13.7068 13.6533 11.3868 16.48 11.3868H21.0933C22.1333 11.3868 23.6533 10.8268 24.4533 10.1335L28.6667 6.53352Z" fill="#30E462"/>
<path d="M28.7733 40.4534C28.24 40.4534 27.7333 40.2401 27.36 39.8667L20.9067 33.4134C20.1333 32.6401 20.1333 31.3601 20.9067 30.5867C21.68 29.8134 22.96 29.8134 23.7333 30.5867L28.7733 35.6267L40.24 24.1601C41.0133 23.3867 42.2933 23.3867 43.0667 24.1601C43.84 24.9334 43.84 26.2134 43.0667 26.9867L30.1867 39.8667C29.8133 40.2401 29.3067 40.4534 28.7733 40.4534Z" fill="#30E462"/>
</svg>
