<svg width="14" height="15" viewBox="0 0 14 15" fill="none" xmlns="http://www.w3.org/2000/svg">
<path fill-rule="evenodd" clip-rule="evenodd" d="M6.90795 0.166535C6.93808 0.166552 6.96865 0.166568 6.99967 0.166568C7.0307 0.166568 7.06127 0.166552 7.09139 0.166535C7.62165 0.166248 8.01542 0.166035 8.35653 0.257433C9.27677 0.504012 9.99557 1.22281 10.2421 2.14305C10.2971 2.34803 10.3189 2.57203 10.3275 2.83323H12.9997C13.3679 2.83323 13.6663 3.13171 13.6663 3.4999C13.6663 3.86809 13.3679 4.16657 12.9997 4.16657H12.333V10.9941C12.333 11.5308 12.333 11.9737 12.3035 12.3345C12.2729 12.7092 12.2072 13.0537 12.0424 13.3772C11.7867 13.879 11.3787 14.2869 10.877 14.5426C10.5534 14.7074 10.209 14.7732 9.83423 14.8038C9.47343 14.8333 9.03053 14.8332 8.49389 14.8332H5.50546C4.96882 14.8332 4.52592 14.8333 4.16512 14.8038C3.79039 14.7732 3.44592 14.7074 3.12237 14.5426C2.6206 14.2869 2.21265 13.879 1.95699 13.3772C1.79213 13.0537 1.72642 12.7092 1.6958 12.3345C1.66633 11.9737 1.66633 11.5307 1.66634 10.9941L1.66634 4.16657H0.999674C0.631485 4.16657 0.333008 3.86809 0.333008 3.4999C0.333008 3.13171 0.631485 2.83323 0.999674 2.83323H3.67182C3.68044 2.57203 3.70228 2.34803 3.75721 2.14305C4.00378 1.22281 4.72258 0.504011 5.64282 0.257433C5.98392 0.166035 6.3777 0.166248 6.90795 0.166535ZM5.00625 2.83323L8.9931 2.83323C8.98698 2.66152 8.97546 2.56734 8.95424 2.48814C8.83095 2.02802 8.47156 1.66862 8.01143 1.54533C7.86325 1.50563 7.66258 1.4999 6.99967 1.4999C6.33677 1.4999 6.1361 1.50563 5.98792 1.54533C5.52779 1.66862 5.1684 2.02802 5.04511 2.48814C5.02389 2.56734 5.01237 2.66152 5.00625 2.83323ZM2.99967 4.16657V10.9666C2.99967 11.5376 3.00019 11.9258 3.02471 12.2259C3.04859 12.5182 3.09187 12.6676 3.145 12.7719C3.27283 13.0228 3.4768 13.2267 3.72769 13.3546C3.83195 13.4077 3.98142 13.451 4.2737 13.4749C4.57376 13.4994 4.96196 13.4999 5.53301 13.4999H8.46634C9.03739 13.4999 9.42559 13.4994 9.72565 13.4749C10.0179 13.451 10.1674 13.4077 10.2717 13.3546C10.5225 13.2267 10.7265 13.0228 10.8544 12.7719C10.9075 12.6676 10.9508 12.5182 10.9746 12.2259C10.9992 11.9258 10.9997 11.5376 10.9997 10.9666V4.16657H2.99967ZM5.66634 6.5878C6.03453 6.5878 6.33301 6.88628 6.33301 7.25447V10.412C6.33301 10.7802 6.03453 11.0787 5.66634 11.0787C5.29815 11.0787 4.99967 10.7802 4.99967 10.412V7.25447C4.99967 6.88628 5.29815 6.5878 5.66634 6.5878ZM8.33301 6.5878C8.7012 6.5878 8.99967 6.88628 8.99967 7.25447V10.412C8.99967 10.7802 8.7012 11.0787 8.33301 11.0787C7.96482 11.0787 7.66634 10.7802 7.66634 10.412V7.25447C7.66634 6.88628 7.96482 6.5878 8.33301 6.5878Z" fill="#FF0000"/>
</svg>
