<svg width="24" height="24" viewBox="0 0 24 24" fill="none" xmlns="http://www.w3.org/2000/svg">
<g clip-path="url(#clip0_54610_317)">
<g clip-path="url(#clip1_54610_317)">
<path d="M30 0H-6V12H30V0Z" fill="white"/>
<path d="M30 12H-6V24H30V12Z" fill="#D52B1E"/>
<path d="M30 8H-6V16H30V8Z" fill="#0039A6"/>
<path fill-rule="evenodd" clip-rule="evenodd" d="M23.5 12C23.5 5.64873 18.3513 0.5 12 0.5C5.64873 0.5 0.5 5.64873 0.5 12C0.5 18.3513 5.64873 23.5 12 23.5C18.3513 23.5 23.5 18.3513 23.5 12ZM12 0C18.6274 0 24 5.37258 24 12C24 18.6274 18.6274 24 12 24C5.37258 24 0 18.6274 0 12C0 5.37258 5.37258 0 12 0Z" fill="#818281"/>
</g>
</g>
<defs>
<clipPath id="clip0_54610_317">
<rect width="24" height="24" fill="white"/>
</clipPath>
<clipPath id="clip1_54610_317">
<rect width="24" height="24" rx="12" fill="white"/>
</clipPath>
</defs>
</svg>
