<svg width="64" height="64" viewBox="0 0 64 64" fill="none" xmlns="http://www.w3.org/2000/svg">
<path opacity="0.4" d="M57.9735 25.1735H5.3335V17.1202C5.3335 10.6135 10.6135 5.3335 17.1202 5.3335H23.3335C27.6802 5.3335 29.0402 6.74683 30.7735 9.06683L34.5068 14.0268C35.3335 15.1202 35.4402 15.2802 36.9868 15.2802H44.4268C50.7468 15.2535 56.1335 19.4135 57.9735 25.1735Z" fill="#D7D7D7"/>
<path d="M58.6402 28.9062C58.5868 27.5995 58.3735 26.3729 57.9735 25.1729H5.3335V44.3995C5.3335 52.2662 11.7335 58.6662 19.6002 58.6662H44.4002C52.2668 58.6662 58.6668 52.2662 58.6668 44.3995V29.5195C58.6668 29.3329 58.6668 29.0929 58.6402 28.9062ZM38.6668 43.3329H34.1602V47.9995C34.1602 49.0929 33.2535 49.9995 32.1602 49.9995C31.0668 49.9995 30.1602 49.0929 30.1602 47.9995V43.3329H25.3335C24.2402 43.3329 23.3335 42.4262 23.3335 41.3329C23.3335 40.2395 24.2402 39.3329 25.3335 39.3329H30.1602V34.6662C30.1602 33.5729 31.0668 32.6662 32.1602 32.6662C33.2535 32.6662 34.1602 33.5729 34.1602 34.6662V39.3329H38.6668C39.7602 39.3329 40.6668 40.2395 40.6668 41.3329C40.6668 42.4262 39.7602 43.3329 38.6668 43.3329Z" fill="#D7D7D7"/>
</svg>
