<svg width="14" height="14" viewBox="0 0 14 14" fill="none" xmlns="http://www.w3.org/2000/svg">
<path fill-rule="evenodd" clip-rule="evenodd" d="M4.18581 0.333008H4.50755C5.04419 0.333 5.4871 0.332993 5.8479 0.362471C6.22263 0.393088 6.5671 0.458797 6.89066 0.623658C7.39242 0.87932 7.80037 1.28727 8.05603 1.78903C8.22089 2.11259 8.2866 2.45706 8.31722 2.83179C8.3467 3.19259 8.34669 3.6355 8.34668 4.17216V4.33301C8.34668 4.7012 8.0482 4.99967 7.68001 4.99967C7.31182 4.99967 7.01335 4.7012 7.01335 4.33301V4.19968C7.01335 3.62862 7.01283 3.24043 6.98831 2.94037C6.96443 2.64809 6.92115 2.49862 6.86802 2.39435C6.74019 2.14347 6.53622 1.9395 6.28533 1.81167C6.18107 1.75854 6.0316 1.71526 5.73932 1.69138C5.43926 1.66686 5.05107 1.66634 4.48001 1.66634H4.21335C3.64229 1.66634 3.2541 1.66686 2.95404 1.69138C2.66176 1.71526 2.51229 1.75854 2.40803 1.81167C2.15714 1.9395 1.95317 2.14347 1.82534 2.39435C1.77221 2.49862 1.72893 2.64809 1.70505 2.94037C1.68053 3.24043 1.68001 3.62862 1.68001 4.19968V9.79967C1.68001 10.3707 1.68053 10.7589 1.70505 11.059C1.72893 11.3513 1.77221 11.5007 1.82534 11.605C1.95317 11.8559 2.15714 12.0599 2.40803 12.1877C2.51229 12.2408 2.66176 12.2841 2.95404 12.308C3.2541 12.3325 3.64229 12.333 4.21335 12.333H4.48001C5.05107 12.333 5.43926 12.3325 5.73932 12.308C6.0316 12.2841 6.18107 12.2408 6.28533 12.1877C6.53622 12.0599 6.74019 11.8559 6.86802 11.605C6.92115 11.5007 6.96443 11.3513 6.98831 11.059C7.01283 10.7589 7.01335 10.3707 7.01335 9.79967V9.66634C7.01335 9.29815 7.31182 8.99967 7.68001 8.99967C8.0482 8.99967 8.34668 9.29815 8.34668 9.66634V9.82719C8.34669 10.3638 8.3467 10.8068 8.31722 11.1676C8.2866 11.5423 8.22089 11.8868 8.05603 12.2103C7.80037 12.7121 7.39242 13.12 6.89066 13.3757C6.5671 13.5406 6.22263 13.6063 5.8479 13.6369C5.4871 13.6664 5.0442 13.6663 4.50756 13.6663H4.1858C3.64916 13.6663 3.20626 13.6664 2.84546 13.6369C2.47073 13.6063 2.12626 13.5406 1.8027 13.3757C1.30094 13.12 0.892992 12.7121 0.63733 12.2103C0.472469 11.8868 0.40676 11.5423 0.376143 11.1676C0.346664 10.8068 0.346671 10.3639 0.34668 9.82721V4.17214C0.346671 3.6355 0.346664 3.19259 0.376143 2.83179C0.40676 2.45706 0.472469 2.11259 0.637329 1.78903C0.892992 1.28727 1.30094 0.87932 1.80271 0.623658C2.12626 0.458797 2.47073 0.393088 2.84546 0.362471C3.20626 0.332993 3.64917 0.333 4.18581 0.333008ZM9.68252 3.6822C9.94287 3.42185 10.365 3.42185 10.6253 3.6822L13.4714 6.52828C13.7318 6.78863 13.7318 7.21074 13.4714 7.47108L10.6253 10.3172C10.365 10.5775 9.94287 10.5775 9.68252 10.3172C9.42217 10.0568 9.42217 9.6347 9.68252 9.37435L11.3905 7.66635H5.91943C5.55124 7.66635 5.25276 7.36787 5.25276 6.99968C5.25276 6.63149 5.55124 6.33301 5.91943 6.33301H11.3905L9.68252 4.62501C9.42217 4.36466 9.42217 3.94255 9.68252 3.6822Z" fill="#FF0000"/>
</svg>
