<svg width="14" height="15" viewBox="0 0 14 15" fill="none" xmlns="http://www.w3.org/2000/svg">
<path fill-rule="evenodd" clip-rule="evenodd" d="M9.46963 0.831055L13.0601 0.831055C13.237 0.831055 13.4065 0.901302 13.5316 1.02634C13.6566 1.15138 13.7268 1.32096 13.7268 1.49779L13.7265 5.14316C13.7264 5.51135 13.4279 5.80979 13.0597 5.80976C12.6915 5.80972 12.3931 5.51122 12.3931 5.14303L12.3933 3.10735L4.67108 10.8296C4.41073 11.0899 3.98862 11.0899 3.72827 10.8296C3.46792 10.5692 3.46792 10.1471 3.72827 9.88679L11.4507 2.16439H9.46963C9.10144 2.16439 8.80296 1.86591 8.80296 1.49772C8.80296 1.12953 9.10144 0.831055 9.46963 0.831055ZM4.17214 2.16633L5.74042 2.16633C6.1086 2.16633 6.40708 2.46481 6.40708 2.833C6.40708 3.20119 6.1086 3.49966 5.74042 3.49966H4.19967C3.62862 3.49966 3.24043 3.50018 2.94037 3.5247C2.64809 3.54858 2.49862 3.59186 2.39435 3.64499C2.14347 3.77282 1.9395 3.97679 1.81167 4.22768C1.75854 4.33194 1.71526 4.48141 1.69138 4.77369C1.66686 5.07375 1.66634 5.46195 1.66634 6.033V10.2997C1.66634 10.8707 1.66686 11.2589 1.69138 11.559C1.71526 11.8512 1.75854 12.0007 1.81167 12.105C1.9395 12.3559 2.14347 12.5598 2.39435 12.6877C2.49862 12.7408 2.64809 12.7841 2.94037 12.808C3.24043 12.8325 3.62862 12.833 4.19968 12.833H8.46634C9.03739 12.833 9.42559 12.8325 9.72565 12.808C10.0179 12.7841 10.1674 12.7408 10.2717 12.6877C10.5225 12.5598 10.7265 12.3559 10.8544 12.105C10.9075 12.0007 10.9508 11.8512 10.9746 11.559C10.9992 11.2589 10.9997 10.8707 10.9997 10.2997V8.75892C10.9997 8.39073 11.2982 8.09226 11.6663 8.09226C12.0345 8.09226 12.333 8.39073 12.333 8.75892V10.3272C12.333 10.8639 12.333 11.3068 12.3035 11.6675C12.2729 12.0423 12.2072 12.3867 12.0424 12.7103C11.7867 13.2121 11.3787 13.62 10.877 13.8757C10.5534 14.0405 10.209 14.1063 9.83423 14.1369C9.47343 14.1663 9.03053 14.1663 8.49389 14.1663H4.17213C3.63549 14.1663 3.19258 14.1663 2.83179 14.1369C2.45706 14.1063 2.11259 14.0405 1.78903 13.8757C1.28727 13.62 0.87932 13.2121 0.623658 12.7103C0.458797 12.3867 0.393088 12.0423 0.362471 11.6675C0.332993 11.3068 0.333 10.8638 0.333008 10.3272V6.00547C0.333 5.46882 0.332993 5.02591 0.362471 4.66511C0.393088 4.29038 0.458797 3.94591 0.623658 3.62236C0.87932 3.12059 1.28727 2.71264 1.78903 2.45698C2.11259 2.29212 2.45706 2.22641 2.83179 2.19579C3.19259 2.16632 3.63549 2.16632 4.17214 2.16633Z" fill="#1F1F1F"/>
</svg>
