<svg width="8" height="8" viewBox="0 0 8 8" fill="none" xmlns="http://www.w3.org/2000/svg">
<path d="M6.82343 7.77033C7.08487 8.03177 7.50875 8.03177 7.7702 7.77033C8.03164 7.50888 8.03164 7.08499 7.7702 6.82355L4.96356 4.01686L7.80392 1.17645C8.06536 0.915007 8.06536 0.491119 7.80392 0.229673C7.54248 -0.0317733 7.1186 -0.0317735 6.85715 0.229673L4.01679 3.07008L1.14285 0.196085C0.881404 -0.0653617 0.457523 -0.0653615 0.196081 0.196085C-0.0653604 0.457531 -0.0653606 0.881419 0.196081 1.14286L3.07003 4.01686L0.229805 6.85714C-0.0316372 7.11858 -0.0316372 7.54247 0.229805 7.80392C0.491246 8.06536 0.915127 8.06536 1.17657 7.80392L4.01679 4.96364L6.82343 7.77033Z" fill="#818281"/>
</svg>
