<svg width="16" height="16" viewBox="0 0 16 16" fill="none" xmlns="http://www.w3.org/2000/svg">
<path fill-rule="evenodd" clip-rule="evenodd" d="M7.3335 2.66634C4.75617 2.66634 2.66683 4.75568 2.66683 7.33301C2.66683 9.91034 4.75617 11.9997 7.3335 11.9997C9.91083 11.9997 12.0002 9.91034 12.0002 7.33301C12.0002 4.75568 9.91083 2.66634 7.3335 2.66634ZM1.3335 7.33301C1.3335 4.0193 4.01979 1.33301 7.3335 1.33301C10.6472 1.33301 13.3335 4.0193 13.3335 7.33301C13.3335 8.74968 12.8425 10.0517 12.0214 11.0781L14.4716 13.5283C14.7319 13.7886 14.7319 14.2107 14.4716 14.4711C14.2112 14.7314 13.7891 14.7314 13.5288 14.4711L11.0786 12.0209C10.0522 12.842 8.75017 13.333 7.3335 13.333C4.01979 13.333 1.3335 10.6467 1.3335 7.33301Z" fill="#1F1F1F" fill-opacity="0.48"/>
</svg>
